<svg xmlns="http://www.w3.org/2000/svg" xmlns:xlink="http://www.w3.org/1999/xlink" width="320.81005859375" height="359.14013671875" viewBox="0 0 320.81005859375 359.14013671875" fill="none"><g opacity="1"  transform="translate(0 0)  rotate(0)"><g opacity="1"  transform="translate(0 66.300048828125)  rotate(0)"><path id="shadow" fill-rule="evenodd" style="fill:#46B860" opacity="0.6" d="M16.1201 153.45C8.22006 153.45 1.81006 154.79 1.81006 156.45C1.81006 158.11 8.22006 159.45 16.1201 159.45C24.0201 159.45 30.4301 158.11 30.4301 156.45C30.4301 154.79 24.0201 153.45 16.1201 153.45Z"></path><path id="shadow" fill-rule="evenodd" style="fill:#46B860" opacity="0.6" d="M213.63 224.45C210.41 224.45 207.81 225.79 207.81 227.45C207.81 229.11 210.41 230.45 213.63 230.45C216.84 230.45 219.44 229.11 219.44 227.45C219.44 225.79 216.84 224.45 213.63 224.45Z"></path><path id="shadow" fill-rule="evenodd" style="fill:#46B860" opacity="0.6" d="M240.12 221.45C232.22 221.45 225.81 222.79 225.81 224.45C225.81 226.11 232.22 227.45 240.12 227.45C248.02 227.45 254.43 226.11 254.43 224.45C254.43 222.79 248.02 221.45 240.12 221.45Z"></path><g opacity="1"  transform="translate(28.919921875 0)  rotate(0)"><path id="Rectangle 6" fill-rule="evenodd" fill="url(#linear_0)" opacity="0.5" d="M1.14014 180.12L171.17 292.84L291.89 181.96L148.32 153.02L56.2501 153.02L1.14014 180.12Z"></path><g opacity="1"  transform="translate(0 4.22998046875)  rotate(0)"><path id="Rectangle 38 Copy 2" fill-rule="evenodd" fill="url(#linear_1)" opacity="1" d="M78.0601 144.24L187.01 161.22L186.53 19.21L78.0601 0.0500488L78.0601 144.24Z"></path><path id="Rectangle 38 Copy 3" fill-rule="evenodd" style="fill:#ADA590" opacity="1" d="M13.4702 27.65L13.4702 172.45L78.5802 140.56L78.5802 0L13.4702 27.65Z"></path><g opacity="1"  transform="translate(12.64013671875 27.75)  rotate(0)"><path id="Mask" fill-rule="evenodd" style="fill:#D1C5A7" opacity="1" d="M0 144.19L109.65 177.88L109.3 21.16L0 0L0 144.19Z"></path><mask id="mask-0" fill="white"><path d="M0 144.19L109.65 177.88L109.3 21.16L0 0L0 144.19Z"  ></path></mask><g mask="url(#mask-0)"><path id="Mask" fill-rule="evenodd" style="fill:#D1C5A7" opacity="1" d="M0 144.19L109.65 177.88L109.3 21.16L0 0L0 144.19Z"></path></g><g mask="url(#mask-0)"><path id="Mask Copy 2" fill-rule="evenodd" fill="url(#linear_2)" opacity="0.1338" d="M0 58.86L109.65 72.62L109.3 8.64L0 0L0 58.86Z"></path></g><g mask="url(#mask-0)"><path id="Rectangle 3" fill-rule="evenodd" style="fill:#FFE5A8" opacity="0.3661" d="M43.8901 163.57L57.1401 163.57L57.1401 7.07007L43.8901 7.07007L43.8901 163.57Z"></path></g></g><g opacity="1"  transform="translate(121.93994140625 19.919921875)  rotate(0)"><path id="Mask" fill-rule="evenodd" style="fill:#C4B799" opacity="1" d="M0 28.43L0 185.75L65.11 141.34L65.11 0L0 28.43Z"></path><mask id="mask-1" fill="white"><path d="M0 28.43L0 185.75L65.11 141.34L65.11 0L0 28.43Z"  ></path></mask><g mask="url(#mask-1)"><path id="Mask" fill-rule="evenodd" style="fill:#C4B799" opacity="1" d="M0 28.43L0 185.75L65.11 141.34L65.11 0L0 28.43Z"></path></g><g mask="url(#mask-1)"><path id="Combined Shape" fill-rule="evenodd" style="fill:#AD9A8E" opacity="1" d="M11.1601,154.451l-3.49018,2.079l5.83998,-14.47l5.91,7.47l-3.2598,1.942v12.898l-5,3z"></path></g><g mask="url(#mask-1)"><path id="Rectangle 2" fill-rule="evenodd" style="fill:#FFE5A8" opacity="0.2483" d="M28.98 165.61L40.47 158.58L40.47 7.87988L28.98 14.9099L28.98 165.61Z"></path></g><g mask="url(#mask-1)"><path id="Mask Copy" fill-rule="evenodd" fill="url(#linear_3)" opacity="0.1338" d="M0 12.66L0 89.57L65.11 55.27L65.11 0L0 12.66Z"></path></g></g><path id="Rectangle 39" fill-rule="evenodd" style="fill:#DDD1B2" opacity="1" d="M165.48 94.9001L232.6 56.9901L186.45 19.0701L121.69 48.3101L165.48 94.9001Z"></path><path id="Rectangle" fill-rule="evenodd" fill="url(#linear_4)" opacity="1" d="M0 82.9601L113.63 108.48L122.1 48.3901L13.47 27.3701L0 82.9601Z"></path></g><path id="Oval" fill-rule="evenodd" style="fill:#46B860" opacity="0.39130000000000004" d="M35.5499 192.61C28.0099 192.61 21.8999 196.89 21.8999 202.17C21.8999 207.44 28.0099 211.72 35.5499 211.72C43.0899 211.72 49.1999 207.44 49.1999 202.17C49.1999 196.89 43.0899 192.61 35.5499 192.61Z"></path><path id="Oval Copy" fill-rule="evenodd" style="fill:#46B860" opacity="0.7" d="M66.7199 207.45C63.4999 207.45 60.8999 208.79 60.8999 210.45C60.8999 212.11 63.4999 213.45 66.7199 213.45C69.9299 213.45 72.5299 212.11 72.5299 210.45C72.5299 208.79 69.9299 207.45 66.7199 207.45Z"></path><g id="Combined Shape" filter="url(#filter_25)"><path id="Combined Shape" fill-rule="evenodd" style="fill:#FFFFFF" opacity="1" d="M32.7499,209.71c-0.0089,-0.015 -0.0177,-0.031 -0.0263,-0.046c-1.0722,0.927 -2.4491,1.446 -3.8837,1.446c-1.58,0 -3.09,-0.63 -4.2,-1.74c-1.11,-1.11 -1.74,-2.62 -1.74,-4.2v-3.24c0,-1.58 0.63,-3.09 1.74,-4.2c1.11,-1.11 2.62,-1.74 4.2,-1.74c1.58,0 3.09,0.63 4.2,1.74c1.11,1.11 1.74,2.62 1.74,4.2v1.213l5.26,-9.523c0.64,-1.16 1.85,-1.89 3.18,-1.92c1.32,-0.02 2.56,0.66 3.25,1.79c2,3.3 1.71,7.51 -0.71,10.51l-2.71,3.36c-1.92,2.37 -4.8,3.75 -7.85,3.75c-1.01,0 -1.94,-0.53 -2.45,-1.4z"></path></g><g id="Path 35" filter="url(#filter_26)"><path id="Path 35" fill-rule="evenodd" style="fill:#FFDF7D" opacity="1" d="M105.44 49.66C105.44 49.66 110.9 52.31 113.59 52.82C116.28 53.32 122.2 52.82 122.2 52.82L143.68 42.63C143.68 42.63 126.66 18.59 108.73 10.41C47.89 -18.74 16.98 33.73 16.98 33.73L105.44 49.66Z"></path></g><g id="Path 34" filter="url(#filter_27)"><path id="Path 34" fill-rule="evenodd" style="fill:#454545" opacity="1" d="M21.51 28.08C-7.09004 58.55 21.51 199.46 21.51 199.46C21.51 199.46 24.42 202.59 31.49 199.46C30.26 174.58 50.53 95.67 55.44 74.13C58.04 108.98 76.54 136.92 75.39 147.73C64.12 153.53 57.67 174.23 62.97 170.51C68.27 166.8 67.84 170.51 74.54 174.23C74.54 164.56 95.89 166.71 96.9 151.53C97.91 136.34 108.95 54.03 104.39 41.06C106.04 28.08 50.11 -2.38002 21.51 28.08Z"></path></g><path id="Rectangle 38" fill-rule="evenodd" style="fill:#FFFFFF" opacity="1" d="M66.8901 198.77L66.8901 198.77C68.8601 198.77 70.7501 197.96 72.1101 196.54C73.4701 195.11 74.1801 193.19 74.0901 191.22L73.0501 169.32C72.8901 166.03 70.1801 163.45 66.8901 163.45L66.8901 163.45C63.6001 163.45 60.8901 166.03 60.7301 169.32L59.6901 191.22C59.6001 193.19 60.3101 195.11 61.6701 196.54C63.0301 197.96 64.9201 198.77 66.8901 198.77Z"></path><path id="Path 36" fill-rule="evenodd" style="fill:#575757" opacity="1" d="M23.934 57.0625C24.7637 60.4738 39.6233 61.9882 39.982 58.5146C40.3412 55.0511 42.1587 48.0764 43.2391 39.6483C37.9631 37.9521 28.1902 38.1539 25.2487 39.5397C23.2716 43.6588 23.1143 53.6507 23.934 57.0625Z"></path><path id="Path 36 Copy" fill-rule="evenodd" style="fill:#575757" opacity="1" d="M66.8518 42.9675C63.0142 52.8107 63.6 58.0114 63.5327 61.5028C63.4672 64.9843 80.4035 67.5238 81.6427 64.2391C82.8819 60.9544 86.3897 50.1595 84.9293 45.8301C82.1786 44.0962 72.2853 41.9252 66.8518 42.9675Z"></path><path  id="Path 37" style="fill:#212121; opacity:0.2535;" d="M90.9943,150.994M90.9943,150.994c-1.7204,-1.08 -3.81983,-1.79633 -6.2983,-2.149c-1.3688,-0.194 -3.01957,-0.27467 -4.9523,-0.242c-0.27113,0.00467 -0.45897,0.007 -0.5635,0.007v-1c0.0988,0 0.28097,-0.00233 0.5465,-0.007c1.98553,-0.03333 3.68883,0.05067 5.1099,0.252c2.619,0.372 4.8488,1.136 6.6894,2.292z"></path></g><g opacity="1"  transform="translate(207.08984375 196.68994140625)  rotate(0)"><path id="Path 38" fill-rule="evenodd" style="fill:#FFFFFF" opacity="1" d="M3.38 30.32C9.41 35.34 11.48 26.65 15.73 22.83C19.98 19.01 23.21 26.65 27.17 28.24C31.12 29.83 40.37 28.24 44.45 26.65C48.53 25.06 35.02 13.45 31.56 6.8C28.1 0.16 24.97 7.91 15.73 1.26C11.38 -1.86 9 1.12 10.78 6.8C11.52 9.18 15.73 11.76 15.73 11.76C15.73 11.76 8.42 9.82 6.39 9.82C1.64 9.82 1.22 13.45 1.22 13.45C1.22 13.45 -2.64 25.3 3.38 30.32Z"></path><path id="Path 39" fill-rule="evenodd" style="fill:#D8D8D8" opacity="0.49810000000000004" d="M31.8298 23.9599L20.0898 15.1799L25.3198 23.9599L31.8298 23.9599Z"></path></g><g opacity="1"  transform="translate(12.72509765625 136.87109375)  rotate(0)"><path id="Path 38" fill-rule="evenodd" style="fill:#FFFFFF" opacity="1" d="M-6.94112 16.5417C-1.19237 18.01 -3.23945 21.8555 0.582171 21.0116C4.39736 20.16 13.5712 21.6653 12.8303 19.5065C12.0969 17.3413 9.63452 13.1155 7.67457 12.071C5.70818 11.0188 1.57301 12.2824 1.67688 9.31033C1.77432 6.33056 4.55029 2.5914 0.532559 1.8637C-3.49926 1.13476 -6.93498 6.6546 -6.93498 6.6546C-6.93498 6.6546 -8.24905 8.04443 -6.65494 9.94422C-5.98001 10.7486 -2.75086 13.0256 -2.75086 13.0256C-2.75086 13.0256 -5.19149 12.2017 -6.39207 12.7C-9.25093 13.8979 -9.6489 15.8505 -6.94112 16.5417Z"></path><path id="Path 39" fill-rule="evenodd" style="fill:#D8D8D8" opacity="0.49810000000000004" d="M0.0794072 13.6139L7.52818 15.3658L5.3427 12.7612L0.0794072 13.6139Z"></path></g></g><g opacity="1"  transform="translate(60.2216796875 0.004150390625)  rotate(0)"><path id="Rectangle 34" fill-rule="evenodd" fill="url(#linear_5)" opacity="1" d="M46.7812 27.2673L40.644 39.8504C40.1793 40.8031 40.1097 41.904 40.455 42.9069C40.8003 43.9098 41.533 44.7344 42.4857 45.1991L42.4857 45.1991C43.4384 45.6637 44.5393 45.7334 45.5422 45.3881C46.545 45.0428 47.3697 44.3101 47.8343 43.3574L53.9715 30.7743C54.4362 29.8215 54.5059 28.7207 54.1605 27.7178C53.8152 26.7149 53.0826 25.8903 52.1298 25.4256L52.1298 25.4256C51.1771 24.9609 50.0762 24.8913 49.0734 25.2366C48.0705 25.5819 47.2459 26.3146 46.7812 27.2673Z"></path><path id="Rectangle 34 Copy" fill-rule="evenodd" fill="url(#linear_6)" opacity="1" d="M8.32278 28.3126L12.8807 41.5499C13.2258 42.5521 13.955 43.3798 14.9083 43.8448C15.8617 44.3097 16.9628 44.3748 17.9651 44.0297L17.9651 44.0297C18.9673 43.6846 19.795 42.9554 20.26 42.002C20.7249 41.0487 20.79 39.9476 20.4449 38.9453L15.8869 25.708C15.5418 24.7058 14.8126 23.8781 13.8593 23.4131C12.906 22.9482 11.8048 22.8831 10.8026 23.2282L10.8026 23.2282C9.80033 23.5733 8.97264 24.3025 8.50768 25.2559C8.04272 26.2092 7.97768 27.3103 8.32278 28.3126Z"></path><path id="Rectangle 34 Copy 2" fill-rule="evenodd" fill="url(#linear_7)" opacity="1" d="M-20.9537 52.086L-8.37053 58.2232C-7.41781 58.6879 -6.31693 58.7575 -5.31405 58.4122C-4.31118 58.0669 -3.48655 57.3342 -3.02187 56.3815L-3.02187 56.3815C-2.5572 55.4288 -2.48756 54.3279 -2.83287 53.325C-3.17819 52.3222 -3.91084 51.4975 -4.86357 51.0328L-17.4467 44.8957C-18.3994 44.431 -19.5003 44.3613 -20.5032 44.7066C-21.506 45.052 -22.3307 45.7846 -22.7953 46.7373L-22.7953 46.7373C-23.26 47.6901 -23.3297 48.791 -22.9843 49.7938C-22.639 50.7967 -21.9064 51.6213 -20.9537 52.086Z"></path></g></g><defs><linearGradient id="linear_0" x1="94.93174376346899%" y1="50.995528586870535%" x2="80.6225721463193%" y2="12.168718818321372%" gradientUnits="objectBoundingBox"><stop offset="0" stop-color="#62D66D" stop-opacity="1" /><stop offset="1" stop-color="#46B860" stop-opacity="1" /></linearGradient><linearGradient id="linear_1" x1="30.569001649059924%" y1="13.461822715227209%" x2="41.637820910428424%" y2="52.3238137271222%" gradientUnits="objectBoundingBox"><stop offset="0" stop-color="#C9BC9F" stop-opacity="1" /><stop offset="1" stop-color="#9D8477" stop-opacity="1" /></linearGradient><linearGradient id="linear_2" x1="58.45849080182993%" y1="51.46358377009281%" x2="75.25138902660663%" y2="100.96080919619051%" gradientUnits="objectBoundingBox"><stop offset="0" stop-color="#4A3F22" stop-opacity="1" /><stop offset="1" stop-color="#C4B799" stop-opacity="0" /></linearGradient><linearGradient id="linear_3" x1="28.70752031191728%" y1="4.120609661076379%" x2="87.30053987433665%" y2="61.535640645875525%" gradientUnits="objectBoundingBox"><stop offset="0" stop-color="#4A3F22" stop-opacity="1" /><stop offset="1" stop-color="#C4B799" stop-opacity="0" /></linearGradient><linearGradient id="linear_4" x1="7.580381331447223%" y1="83.63592984098847%" x2="44.53071308718229%" y2="68.47516783954293%" gradientUnits="objectBoundingBox"><stop offset="0" stop-color="#DED8C7" stop-opacity="1" /><stop offset="1" stop-color="#BBB095" stop-opacity="1" /></linearGradient><filter id="filter_25" x="22.89990234375" y="191.699462890625" width="24.893680572509766" height="19.410430908203125" filterUnits="userSpaceOnUse" color-interpolation-filters="sRGB"><feFlood flood-opacity="0" result="feFloodId"/>
          <feColorMatrix in="SourceAlpha" type="matrix" values="0 0 0 0 0 0 0 0 0 0 0 0 0 0 0 0 0 0 127 0" result="hardAlpha"/>
          
          <feOffset dx="0" dy="-3"/>
          
          <feComposite in2="hardAlpha" operator="arithmetic" k2="-1" k3="1"/>
          <feColorMatrix type="matrix" values="0 0 0 0 0 0 0 0 0 0 0 0 0 0 0 0 0 0 0.05 0"/>
          <feBlend mode="normal" in2="filter_feFlood" result="filter_feFlood_1"/>
          <feBlend mode="normal" in="SourceGraphic" in2="filter_25" result="shape"/></filter><filter id="filter_26" x="7.97998046875" y="0" width="144.7" height="53.04" filterUnits="userSpaceOnUse" color-interpolation-filters="sRGB"><feFlood flood-opacity="0" result="feFloodId"/>
          <feColorMatrix in="SourceAlpha" type="matrix" values="0 0 0 0 0 0 0 0 0 0 0 0 0 0 0 0 0 0 127 0" result="hardAlpha"/>
          
          <feOffset dx="9" dy="-3"/>
          
          <feComposite in2="hardAlpha" operator="arithmetic" k2="-1" k3="1"/>
          <feColorMatrix type="matrix" values="0 0 0 0 0.8509803921568627 0 0 0 0 0.5843137254901961 0 0 0 0 0.30980392156862746 0 0 0 0.21 0"/>
          <feBlend mode="normal" in2="filter_feFlood" result="filter_feFlood_1"/>
          <feBlend mode="normal" in="SourceGraphic" in2="filter_26" result="shape"/></filter><filter id="filter_27" x="7.2099609375" y="14.97998046875" width="98.28" height="185.87" filterUnits="userSpaceOnUse" color-interpolation-filters="sRGB"><feFlood flood-opacity="0" result="feFloodId"/>
          <feColorMatrix in="SourceAlpha" type="matrix" values="0 0 0 0 0 0 0 0 0 0 0 0 0 0 0 0 0 0 127 0" result="hardAlpha"/>
          
          <feOffset dx="-6" dy="-1"/>
          
          <feComposite in2="hardAlpha" operator="arithmetic" k2="-1" k3="1"/>
          <feColorMatrix type="matrix" values="0 0 0 0 0 0 0 0 0 0 0 0 0 0 0 0 0 0 0.07 0"/>
          <feBlend mode="normal" in2="filter_feFlood" result="filter_feFlood_1"/>
          <feBlend mode="normal" in="SourceGraphic" in2="filter_27" result="shape"/></filter><linearGradient id="linear_5" x1="60.7755020710624" y1="23.48651635615299" x2="48.433905495668846" y2="48.790539187792724" gradientUnits="userSpaceOnUse"><stop offset="0" stop-color="#63D76E" stop-opacity="1" /><stop offset="1" stop-color="#40C164" stop-opacity="1" /></linearGradient><linearGradient id="linear_6" x1="14.72284780843183" y1="16.827392037547195" x2="23.88866714915554" y2="43.446864859282904" gradientUnits="userSpaceOnUse"><stop offset="0" stop-color="#63D76E" stop-opacity="1" /><stop offset="1" stop-color="#40C164" stop-opacity="1" /></linearGradient><linearGradient id="linear_7" x1="-24.73454808556079" y1="40.78677079595985" x2="0.5694747460789458" y2="53.128367371353406" gradientUnits="userSpaceOnUse"><stop offset="0" stop-color="#63D76E" stop-opacity="1" /><stop offset="1" stop-color="#40C164" stop-opacity="1" /></linearGradient></defs></svg>