<?xml version="1.0" standalone="no"?><!DOCTYPE svg PUBLIC "-//W3C//DTD SVG 1.1//EN" "http://www.w3.org/Graphics/SVG/1.1/DTD/svg11.dtd"><svg t="1685167321619" class="icon" viewBox="0 0 1024 1024" version="1.1" xmlns="http://www.w3.org/2000/svg" p-id="1457" xmlns:xlink="http://www.w3.org/1999/xlink" width="48" height="48"><path d="M512 64a448 448 0 1 1 0 896A448 448 0 0 1 512 64z m0 64a384 384 0 1 0 0 768A384 384 0 0 0 512 128z m-32 64a32 32 0 0 1 31.488 26.24L512 224v256h192a32 32 0 0 1 5.76 63.488L704 544H448v-320l0.512-5.76A32 32 0 0 1 480 192z" fill="#2c2c2c" p-id="1458"></path></svg>