<?xml version="1.0" standalone="no"?><!DOCTYPE svg PUBLIC "-//W3C//DTD SVG 1.1//EN" "http://www.w3.org/Graphics/SVG/1.1/DTD/svg11.dtd"><svg t="1687181611409" class="icon" viewBox="0 0 1024 1024" version="1.1" xmlns="http://www.w3.org/2000/svg" p-id="1051" xmlns:xlink="http://www.w3.org/1999/xlink" width="48" height="48"><path d="M961.28 510.653c0 0.499 0 0.898-0.1 1.347v1.696l-0.05 1v0.25l-0.2 1.048v0.099a26.408 26.408 0 0 1-7.288 14.726L833.535 653.972a25.559 25.559 0 0 1-36.74 0 27.107 27.107 0 0 1 0-37.689l75.728-77.626H488.09A26.408 26.408 0 0 1 462.08 512c0-14.677 11.68-26.657 25.958-26.657h384.584l-75.728-77.626a27.107 27.107 0 0 1 0-37.69 25.559 25.559 0 0 1 36.74 0L953.743 493.18c4.093 4.143 6.49 9.335 7.288 14.727v0.1a4.543 4.543 0 0 1 0.15 1.048v0.299c0.1 0.25 0.1 0.6 0.1 0.998v0.3zM686.72 911.36a24.96 24.96 0 0 0 24.96-24.96V736.64a24.96 24.96 0 1 1 49.92 0v199.68a24.96 24.96 0 0 1-24.96 24.96H87.68a24.96 24.96 0 0 1-24.96-24.96V87.68a24.96 24.96 0 0 1 24.96-24.96h648.96a24.96 24.96 0 0 1 24.96 24.96v199.68a24.96 24.96 0 1 1-49.92 0V137.6a24.96 24.96 0 0 0-24.96-24.96H137.6a24.96 24.96 0 0 0-24.96 24.96v748.8a24.96 24.96 0 0 0 24.96 24.96h549.12z" fill="#333333" p-id="1052"></path></svg>