<?xml version="1.0" standalone="no"?><!DOCTYPE svg PUBLIC "-//W3C//DTD SVG 1.1//EN" "http://www.w3.org/Graphics/SVG/1.1/DTD/svg11.dtd"><svg t="1690960245767" class="icon" viewBox="0 0 1024 1024" version="1.1" xmlns="http://www.w3.org/2000/svg" p-id="1521" xmlns:xlink="http://www.w3.org/1999/xlink" width="200" height="200"><path d="M396.41296 471.381907l233.370095 0 1.231037-24.315802c0.102331-2.001587 0.152473-4.02057 0.152473-6.002714 0-45.385677-26.184359-84.820827-64.361867-104.236016 17.169031-14.954597 28.05087-36.94033 28.05087-61.431118 0-44.947701-36.602639-81.514525-81.592296-81.514525-44.99068 0-81.59332 36.566824-81.59332 81.514525 0 24.432459 10.829649 46.372144 27.928073 61.324694-38.293141 19.377326-64.576761 58.872852-64.576761 104.34244 0 1.9934 0.051165 4.015454 0.152473 6.009877L396.41296 471.381907zM513.263272 245.104347c16.745383 0 30.369681 13.588483 30.369681 30.29191 0 16.702404-13.623275 30.290887-30.369681 30.290887-16.746406 0-30.369681-13.588483-30.369681-30.290887C482.89359 258.693854 496.516866 245.104347 513.263272 245.104347zM513.094426 375.222847c29.445636 0 54.505381 18.84623 63.395866 44.936445L449.699584 420.159292C458.590068 394.068054 483.64879 375.222847 513.094426 375.222847zM319.712067 808.049646l386.765741 0c14.145162 0 25.611308-11.466146 25.611308-25.611308s-11.466146-25.611308-25.611308-25.611308L319.712067 756.827031c-14.145162 0-25.611308 11.466146-25.611308 25.611308S305.566906 808.049646 319.712067 808.049646zM820.086285 68.047816l-613.983719 0c-14.145162 0-25.611308 11.467169-25.611308 25.611308l0 837.251735c0 14.145162 11.467169 25.611308 25.611308 25.611308l613.983719 0c14.145162 0 25.611308-11.466146 25.611308-25.611308L845.697593 93.660146C845.697593 79.514985 834.231447 68.047816 820.086285 68.047816zM794.474978 905.299551 231.714897 905.299551 231.714897 119.271454l562.760081 0L794.474978 905.299551zM319.712067 690.853457l386.765741 0c14.145162 0 25.611308-11.466146 25.611308-25.611308s-11.466146-25.611308-25.611308-25.611308L319.712067 639.630842c-14.145162 0-25.611308 11.466146-25.611308 25.611308S305.566906 690.853457 319.712067 690.853457zM319.712067 573.634756l386.765741 0c14.145162 0 25.611308-11.466146 25.611308-25.611308s-11.466146-25.611308-25.611308-25.611308L319.712067 522.412141c-14.145162 0-25.611308 11.466146-25.611308 25.611308S305.566906 573.634756 319.712067 573.634756z" p-id="1522"></path></svg>