<?xml version="1.0" standalone="no"?><!DOCTYPE svg PUBLIC "-//W3C//DTD SVG 1.1//EN" "http://www.w3.org/Graphics/SVG/1.1/DTD/svg11.dtd"><svg t="1685169607479" class="icon" viewBox="0 0 1024 1024" version="1.1" xmlns="http://www.w3.org/2000/svg" p-id="1599" xmlns:xlink="http://www.w3.org/1999/xlink" width="48" height="48"><path d="M896 96a32 32 0 0 1 32 32v768a32 32 0 0 1-32 32H128a32 32 0 0 1-32-32V128a32 32 0 0 1 32-32z m-32 64h-704v704h704v-704z m-128.896 512.128a32 32 0 0 1 5.76 63.488l-5.76 0.512h-448a32 32 0 0 1-5.76-63.488l5.76-0.512h448z m-275.712-192a32 32 0 0 1 5.76 63.488l-5.76 0.512H287.104a32 32 0 0 1-5.76-63.488l5.76-0.512h172.288z m68.928-192a32 32 0 0 1 5.76 63.488l-5.76 0.512h-241.28a32 32 0 0 1-5.696-63.488l5.76-0.512h241.28z" fill="#2c2c2c" p-id="1600"></path></svg>